# xmcd
#
# Track frame offsets:
#	150
#	13462
#	38390
#	65282
#	78267
#	89634
#	108376
#	123751
#	137496
#	165456
#	189258
#	207774
#	227260
#	249603
#	268166
#	289505
#	308241
#	324811
#
# Disc length: 4555 seconds
#
# Revision: 1
# Processed by: cddbd v1.5.2PL0 Copyright (c) Steve Scherf et al.
# Submitted via: audiograbber 1.83.01
#
DISCID=e311c912
DTITLE=Steve Miller Band - The Album CD2
DYEAR=1900
DGENRE=Blues
TTITLE0=My Dark Hour
TTITLE1=Evil
TTITLE2=Blues With A Feelin'
TTITLE3=Lovin' Cup
TTITLE4=So Long Blues
TTITLE5=Baby's Callin' Me Home
TTITLE6=Nothing Lasts
TTITLE7=Kitchen Blues (Come On In My Kitchen)
TTITLE8=The Window
TTITLE9=Song For Our Ancestors
TTITLE10=Seasons
TTITLE11=Super Shuffle
TTITLE12=Your Old Lady
TTITLE13=I Got Love And You Want It
TTITLE14=Mojo (Got My Mojo Working)
TTITLE15=Think
TTITLE16=Fannie Mae
TTITLE17=I Wrote My Babe A Letter
EXTD=
EXTT0=
EXTT1=
EXTT2=
EXTT3=
EXTT4=
EXTT5=
EXTT6=
EXTT7=
EXTT8=
EXTT9=
EXTT10=
EXTT11=
EXTT12=
EXTT13=
EXTT14=
EXTT15=
EXTT16=
EXTT17=
PLAYORDER=
